<?xml version="1.0" encoding="UTF-8"?>
<svg width="200" height="200" viewBox="0 0 200 200" xmlns="http://www.w3.org/2000/svg">
  <defs>
    <linearGradient id="throttleGradient" x1="0%" y1="0%" x2="100%" y2="100%">
      <stop offset="0%" style="stop-color:#00ADD8;stop-opacity:1" />
      <stop offset="100%" style="stop-color:#0066CC;stop-opacity:1" />
    </linearGradient>
    <linearGradient id="gearGradient" x1="0%" y1="0%" x2="100%" y2="100%">
      <stop offset="0%" style="stop-color:#FF6B35;stop-opacity:1" />
      <stop offset="100%" style="stop-color:#CC4400;stop-opacity:1" />
    </linearGradient>
  </defs>
  
  <!-- Background circle -->
  <circle cx="100" cy="100" r="95" fill="url(#throttleGradient)" stroke="#FFFFFF" stroke-width="5"/>
  
  <!-- Throttle valve body -->
  <rect x="60" y="85" width="80" height="30" rx="15" fill="#FFFFFF" opacity="0.9"/>
  
  <!-- Throttle butterfly valve -->
  <ellipse cx="100" cy="100" rx="25" ry="8" fill="url(#gearGradient)" transform="rotate(25 100 100)"/>
  
  <!-- Throttle shaft -->
  <line x1="75" y1="100" x2="125" y2="100" stroke="#333333" stroke-width="3" stroke-linecap="round"/>
  
  <!-- Flow indicators (left side - restricted) -->
  <g opacity="0.7">
    <line x1="30" y1="90" x2="50" y2="90" stroke="#00ADD8" stroke-width="2" marker-end="url(#arrowhead)"/>
    <line x1="30" y1="100" x2="50" y2="100" stroke="#00ADD8" stroke-width="2" marker-end="url(#arrowhead)"/>
    <line x1="30" y1="110" x2="50" y2="110" stroke="#00ADD8" stroke-width="2" marker-end="url(#arrowhead)"/>
  </g>
  
  <!-- Flow indicators (right side - controlled) -->
  <g opacity="0.7">
    <line x1="150" y1="95" x2="170" y2="95" stroke="#00ADD8" stroke-width="3" marker-end="url(#arrowhead)"/>
    <line x1="150" y1="105" x2="170" y2="105" stroke="#00ADD8" stroke-width="3" marker-end="url(#arrowhead)"/>
  </g>
  
  <!-- Arrow marker definition -->
  <defs>
    <marker id="arrowhead" markerWidth="10" markerHeight="7" 
     refX="10" refY="3.5" orient="auto">
      <polygon points="0 0, 10 3.5, 0 7" fill="#00ADD8" />
    </marker>
  </defs>
  
  <!-- Gear teeth around the circle (representing rate limiting) -->
  <g fill="#FFFFFF" opacity="0.8">
    <!-- Top teeth -->
    <rect x="95" y="5" width="10" height="15" rx="2"/>
    <rect x="115" y="10" width="8" height="12" rx="2" transform="rotate(30 119 16)"/>
    <rect x="130" y="25" width="8" height="12" rx="2" transform="rotate(60 134 31)"/>
    
    <!-- Right teeth -->
    <rect x="185" y="95" width="15" height="10" rx="2"/>
    <rect x="180" y="115" width="12" height="8" rx="2" transform="rotate(30 186 119)"/>
    <rect x="165" y="130" width="12" height="8" rx="2" transform="rotate(60 171 134)"/>
    
    <!-- Bottom teeth -->
    <rect x="95" y="185" width="10" height="15" rx="2"/>
    <rect x="75" y="180" width="8" height="12" rx="2" transform="rotate(-30 79 186)"/>
    <rect x="60" y="165" width="8" height="12" rx="2" transform="rotate(-60 64 171)"/>
    
    <!-- Left teeth -->
    <rect x="5" y="95" width="15" height="10" rx="2"/>
    <rect x="10" y="75" width="12" height="8" rx="2" transform="rotate(-30 16 79)"/>
    <rect x="25" y="60" width="12" height="8" rx="2" transform="rotate(-60 31 64)"/>
  </g>
  
  <!-- Central hub -->
  <circle cx="100" cy="100" r="12" fill="#333333"/>
  <circle cx="100" cy="100" r="6" fill="#FFFFFF"/>
</svg>
